<svg xmlns="http://www.w3.org/2000/svg" xmlns:xlink="http://www.w3.org/1999/xlink" width="500" zoomAndPan="magnify" viewBox="0 0 375 374.999991" height="500" preserveAspectRatio="xMidYMid meet" version="1.2"><defs><clipPath id="a1b1ddb99a"><path d="M 131.25 37.5 L 243.75 37.5 L 243.75 150 L 131.25 150 Z M 131.25 37.5 "/></clipPath><clipPath id="4721622a9c"><path d="M 187.5 37.5 C 156.433594 37.5 131.25 62.683594 131.25 93.75 C 131.25 124.816406 156.433594 150 187.5 150 C 218.566406 150 243.75 124.816406 243.75 93.75 C 243.75 62.683594 218.566406 37.5 187.5 37.5 Z M 187.5 37.5 "/></clipPath></defs><g id="50fd7bd8d9"><g clip-rule="nonzero" clip-path="url(#a1b1ddb99a)"><g clip-rule="nonzero" clip-path="url(#4721622a9c)"><path style=" stroke:none;fill-rule:nonzero;fill:#53b9ff;fill-opacity:1;" d="M 131.25 37.5 L 243.75 37.5 L 243.75 150 L 131.25 150 Z M 131.25 37.5 "/></g></g><path style=" stroke:none;fill-rule:nonzero;fill:#000080;fill-opacity:1;" d="M 197.65625 13.390625 L 220.453125 36.054688 C 224.117188 39.695312 229.445312 41.125 234.441406 39.796875 L 265.523438 31.566406 C 273.261719 29.511719 281.199219 34.105469 283.292969 41.820312 L 291.699219 72.851562 C 293.054688 77.835938 296.945312 81.730469 301.933594 83.085938 L 332.964844 91.492188 C 340.691406 93.585938 345.273438 101.523438 343.21875 109.261719 L 334.984375 140.339844 C 333.660156 145.339844 335.085938 150.65625 338.726562 154.328125 L 361.394531 177.125 C 367.039062 182.800781 367.039062 191.964844 361.394531 197.648438 L 338.726562 220.445312 C 335.085938 224.105469 333.660156 229.4375 334.984375 234.433594 L 343.21875 265.511719 C 345.273438 273.25 340.679688 281.191406 332.964844 283.28125 L 301.933594 291.6875 C 296.945312 293.042969 293.054688 296.9375 291.699219 301.921875 L 283.292969 332.953125 C 281.199219 340.679688 273.261719 345.261719 265.523438 343.207031 L 234.441406 334.976562 C 229.445312 333.652344 224.125 335.078125 220.453125 338.71875 L 197.65625 361.382812 C 191.984375 367.027344 182.820312 367.027344 177.136719 361.382812 L 154.339844 338.71875 C 150.679688 335.078125 145.347656 333.652344 140.351562 334.976562 L 109.269531 343.207031 C 101.535156 345.261719 93.59375 340.671875 91.5 332.953125 L 83.097656 301.921875 C 81.742188 296.9375 77.847656 293.042969 72.859375 291.6875 L 41.832031 283.28125 C 34.105469 281.191406 29.523438 273.25 31.574219 265.511719 L 39.808594 234.433594 C 41.132812 229.4375 39.707031 224.117188 36.066406 220.445312 L 13.402344 197.648438 C 7.757812 191.972656 7.757812 182.808594 13.402344 177.125 L 36.066406 154.328125 C 39.707031 150.667969 41.132812 145.339844 39.808594 140.339844 L 31.574219 109.261719 C 29.523438 101.523438 34.113281 93.585938 41.832031 91.492188 L 72.859375 83.085938 C 77.847656 81.730469 81.742188 77.835938 83.097656 72.851562 L 91.5 41.820312 C 93.59375 34.09375 101.535156 29.511719 109.269531 31.566406 L 140.351562 39.796875 C 145.347656 41.125 150.667969 39.695312 154.339844 36.054688 L 177.136719 13.390625 C 182.808594 7.746094 191.972656 7.746094 197.65625 13.390625 Z M 197.65625 13.390625 "/><path style=" stroke:none;fill-rule:nonzero;fill:#ffffff;fill-opacity:1;" d="M 153.410156 256.785156 C 149.898438 256.785156 146.390625 255.449219 143.71875 252.769531 L 100.339844 209.390625 C 94.992188 204.039062 94.992188 195.363281 100.339844 190 C 105.691406 184.640625 114.367188 184.652344 119.71875 190 L 153.410156 223.691406 L 255.074219 122.023438 C 260.425781 116.675781 269.101562 116.675781 274.464844 122.023438 C 279.8125 127.375 279.8125 136.054688 274.464844 141.414062 L 163.109375 252.769531 C 160.429688 255.449219 156.929688 256.785156 153.417969 256.785156 Z M 153.410156 256.785156 "/></g></svg>